<svg width="170" height="32" viewBox="0 0 170 32" fill="none" xmlns="http://www.w3.org/2000/svg">
<g clip-path="url(#clip0_4572_140)">
<path d="M0 23.9243V7.95166H3.412V14.3257H10.311V7.95166H13.723V23.8868H10.311V17.2503H3.412V23.9243H0Z" fill="#231F20"/>
<path d="M21.3343 23.9201L15.4476 7.94741H19.1971L22.3091 17.8834C22.3841 18.0709 22.4591 18.4459 22.5716 19.0083C22.6841 19.5707 22.834 20.1706 22.9465 20.883C23.059 20.2081 23.134 19.6082 23.2465 19.0458C23.359 18.5209 23.4714 18.0709 23.5839 17.7335L26.7335 7.90991H30.4454L24.5588 23.9201H21.3343Z" fill="#231F20"/>
<path d="M32.2079 23.9207V7.948H35.7324L42.7813 17.2091C42.9688 17.4716 43.1938 17.8465 43.4562 18.2965C43.6812 18.7839 43.9437 19.3463 44.2061 19.9837C44.1311 19.4963 44.0561 19.0464 44.0186 18.5964C43.9811 18.1465 43.9812 17.5466 43.9812 16.8717V7.948H47.2432V23.8832H43.9062L36.6697 14.4345C36.4823 14.1721 36.2573 13.7971 35.9948 13.3472C35.7699 12.8598 35.5074 12.2974 35.2449 11.66C35.3199 12.1099 35.3949 12.5973 35.4324 13.0472C35.4699 13.4972 35.4699 14.0971 35.4699 14.8095V23.9207H32.2079Z" fill="#231F20"/>
<path d="M103.26 15.5243H110.196C110.196 15.5993 110.234 15.7118 110.234 15.8242C110.234 15.9367 110.234 16.0867 110.234 16.3117C110.234 18.5988 109.596 20.4361 108.284 21.8608C106.972 23.2856 105.285 23.9605 103.222 23.9605C100.86 23.9605 98.9105 23.2106 97.3732 21.7109C95.836 20.2111 95.0861 18.2989 95.0861 15.9742C95.0861 13.6871 95.836 11.7748 97.3732 10.2751C98.9105 8.77528 100.86 8.02539 103.185 8.02539C104.422 8.02539 105.547 8.28785 106.597 8.81277C107.609 9.3377 108.547 10.1251 109.371 11.1374L107.197 12.7497C106.634 12.0748 106.072 11.5874 105.472 11.2874C104.872 10.9875 104.16 10.8375 103.372 10.8375C101.873 10.8375 100.673 11.2874 99.7729 12.2248C98.873 13.1621 98.4231 14.3994 98.4231 15.9742C98.4231 17.5115 98.873 18.7488 99.7729 19.6862C100.673 20.6235 101.873 21.111 103.297 21.111C104.347 21.111 105.21 20.8485 105.884 20.3611C106.559 19.8736 106.897 19.1987 106.897 18.4114V18.2614H103.26V15.5243Z" fill="#231F20"/>
<path d="M123.769 23.5073H120.02L116.008 16.4208V23.5073H112.746V8.32202H117.395C119.232 8.32202 120.62 8.69697 121.557 9.40936C122.494 10.1218 122.944 11.2091 122.944 12.6339C122.944 13.6837 122.644 14.5836 122.007 15.296C121.37 16.0459 120.582 16.4583 119.57 16.6083L123.769 23.5073ZM116.008 14.8086H116.495C117.808 14.8086 118.67 14.6586 119.082 14.3961C119.495 14.0962 119.72 13.6087 119.72 12.8963C119.72 12.1465 119.495 11.6215 119.045 11.3216C118.595 11.0216 117.733 10.8342 116.495 10.8342H116.008V14.8086Z" fill="#231F20"/>
<path d="M141.204 15.9746C141.204 17.0619 141.017 18.0743 140.604 19.0491C140.192 20.024 139.629 20.8864 138.842 21.5988C138.055 22.3487 137.155 22.9486 136.18 23.3235C135.205 23.736 134.155 23.9234 133.105 23.9234C132.168 23.9234 131.268 23.7734 130.368 23.436C129.468 23.0985 128.681 22.6861 127.931 22.0862C126.994 21.3363 126.244 20.3989 125.719 19.3491C125.194 18.2993 124.969 17.1369 124.969 15.9371C124.969 14.8498 125.157 13.7999 125.569 12.8626C125.981 11.8877 126.544 11.0628 127.331 10.3129C128.081 9.56305 128.981 9.00063 129.993 8.58819C131.006 8.17575 132.018 7.98828 133.105 7.98828C134.155 7.98828 135.205 8.17575 136.18 8.58819C137.192 9.00063 138.055 9.56305 138.842 10.3129C139.592 11.0628 140.192 11.9252 140.604 12.8626C141.017 13.8374 141.204 14.8873 141.204 15.9746ZM133.105 21.0364C134.493 21.0364 135.618 20.5489 136.517 19.5741C137.417 18.5992 137.867 17.3994 137.867 15.9371C137.867 14.5123 137.417 13.275 136.517 12.3001C135.618 11.3253 134.493 10.8379 133.105 10.8379C131.718 10.8379 130.593 11.3253 129.693 12.3001C128.794 13.275 128.344 14.4748 128.344 15.9371C128.344 17.3994 128.794 18.5992 129.693 19.5741C130.556 20.5489 131.718 21.0364 133.105 21.0364Z" fill="#231F20"/>
<path d="M157.027 8.32202V17.7706C157.027 19.8328 156.502 21.3701 155.415 22.3825C154.327 23.3948 152.677 23.9197 150.503 23.9197C148.291 23.9197 146.641 23.3948 145.554 22.3825C144.466 21.3701 143.941 19.8328 143.941 17.7706V8.32202H147.166V17.2832C147.166 18.5205 147.428 19.4954 147.991 20.0953C148.553 20.7327 149.378 21.0327 150.465 21.0327C151.59 21.0327 152.415 20.7327 152.977 20.0953C153.54 19.4579 153.84 18.5205 153.84 17.2832V8.32202H157.027Z" fill="#231F20"/>
<path d="M160.401 23.5073V8.32202H164.151C166.138 8.32202 167.6 8.69697 168.575 9.44686C169.512 10.1967 170 11.3966 170 12.9713C170 14.4336 169.512 15.5959 168.575 16.4208C167.6 17.2457 166.288 17.6581 164.601 17.6581H163.701V23.5073H160.401ZM163.663 15.1835H164.113C165.013 15.1835 165.65 14.996 166.025 14.6211C166.4 14.2461 166.625 13.6837 166.625 12.8589C166.625 12.109 166.438 11.584 166.025 11.2091C165.613 10.8342 164.976 10.6842 164.113 10.6842H163.663V15.1835Z" fill="#231F20"/>
<path d="M71.1641 23.4714L79.6003 31.8702H87.0992L71.1641 15.9351" fill="#E84443"/>
<path d="M71.1643 15.9351L55.2291 31.8702H62.7655L71.1643 23.4714" fill="#E84443"/>
<path d="M55.2292 5.32422V23.5465V28.8707L60.5535 23.5465V0L55.2292 5.32422Z" fill="#E84443"/>
<path d="M73.0394 14.0606L76.2265 17.2476V14.0606V10.8735L73.0394 14.0606Z" fill="#808080"/>
<path d="M78.4762 8.6238V19.4972L81.6632 22.6842V19.1597V15.9727V12.1483V8.96125V5.43677L78.4762 8.6238Z" fill="#808080"/>
<path d="M83.9128 3.18703V24.9338L87.0999 28.1209V25.9087V22.7217V6.37406V3.18703V0L83.9128 3.18703Z" fill="#808080"/>
</g>
<defs>
<clipPath id="clip0_4572_140">
<rect width="170" height="31.8703" fill="white"/>
</clipPath>
</defs>
</svg>
