<?xml version="1.0" encoding="UTF-8"?> <!-- Generator: Adobe Illustrator 25.0.1, SVG Export Plug-In . SVG Version: 6.00 Build 0) --> <svg xmlns="http://www.w3.org/2000/svg" xmlns:xlink="http://www.w3.org/1999/xlink" version="1.1" id="Layer_1" x="0px" y="0px" viewBox="0 0 198.6 176.8" style="enable-background:new 0 0 198.6 176.8;" xml:space="preserve"> <style type="text/css"> .st0{fill:#231F20;} .st1{fill:#E84443;} .st2{fill:#808080;} .st3{display:none;fill:none;stroke:#231F20;stroke-width:0.1222;stroke-miterlimit:10;} .st4{display:none;} .st5{display:inline;fill:none;stroke:#231F20;stroke-width:0.1;stroke-miterlimit:10;} </style> <g> <path class="st0" d="M8.7,165.1v-21.3h4.6v8.5h9.2v-8.5H27v21.3h-4.6v-8.9h-9.2v8.9H8.7z"></path> <path class="st0" d="M37.2,165.1l-7.9-21.3h5l4.1,13.3c0.1,0.3,0.2,0.8,0.4,1.5c0.2,0.7,0.3,1.6,0.5,2.5c0.1-0.9,0.3-1.7,0.4-2.4 s0.3-1.3,0.4-1.7l4.2-13.1h5l-7.9,21.3H37.2z"></path> <path class="st0" d="M51.7,165.1v-21.3h4.7l9.4,12.4c0.3,0.3,0.6,0.8,0.9,1.5s0.7,1.4,1,2.2c-0.1-0.6-0.2-1.3-0.2-1.9 s-0.1-1.4-0.1-2.3v-11.9h4.4v21.3h-4.5l-9.7-12.6c-0.3-0.3-0.6-0.8-0.9-1.5s-0.7-1.4-1-2.3c0.1,0.6,0.2,1.2,0.2,1.9 c0,0.6,0.1,1.4,0.1,2.4v12.2H51.7z"></path> <path class="st0" d="M96.3,153.8h9.7c0,0.1,0,0.3,0,0.4s0,0.4,0,0.7c0,3.2-0.9,5.8-2.7,7.8c-1.8,2-4.2,3-7.1,3 c-3.3,0-6-1.1-8.2-3.2c-2.1-2.1-3.2-4.8-3.2-8c0-3.2,1.1-5.9,3.2-8c2.2-2.1,4.9-3.2,8.2-3.2c1.7,0,3.3,0.4,4.8,1.1s2.7,1.8,3.9,3.3 l-3.1,2.3c-0.8-1-1.6-1.6-2.4-2.1c-0.8-0.4-1.8-0.6-2.9-0.6c-2.1,0-3.8,0.7-5.1,2s-1.9,3.1-1.9,5.3c0,2.2,0.6,3.9,1.9,5.2 s2.9,2,5,2c1.5,0,2.7-0.4,3.6-1.1c0.9-0.7,1.4-1.6,1.4-2.8v-0.2h-5.1V153.8z"></path> <path class="st0" d="M125.1,165.1h-5.3l-5.6-10v10h-4.6v-21.3h6.5c2.6,0,4.5,0.5,5.8,1.5s1.9,2.5,1.9,4.5c0,1.5-0.4,2.7-1.3,3.8 c-0.9,1-2,1.6-3.4,1.8L125.1,165.1z M114.2,152.9h0.7c1.8,0,3.1-0.2,3.7-0.6c0.6-0.4,0.9-1.1,0.9-2.1c0-1-0.3-1.8-1-2.2 c-0.6-0.4-1.8-0.7-3.6-0.7h-0.7V152.9z"></path> <path class="st0" d="M149.6,154.5c0,1.5-0.3,3-0.9,4.3c-0.6,1.4-1.4,2.6-2.5,3.6c-1.1,1.1-2.4,1.9-3.7,2.4 c-1.4,0.6-2.8,0.8-4.3,0.8c-1.3,0-2.6-0.2-3.8-0.7c-1.2-0.4-2.4-1.1-3.4-1.9c-1.3-1.1-2.4-2.3-3.1-3.8c-0.7-1.5-1.1-3.1-1.1-4.8 c0-1.5,0.3-3,0.8-4.3s1.4-2.5,2.5-3.6c1.1-1,2.3-1.8,3.7-2.4c1.4-0.6,2.9-0.9,4.4-0.9c1.5,0,2.9,0.3,4.3,0.9 c1.4,0.6,2.6,1.4,3.7,2.4c1.1,1,1.9,2.2,2.5,3.6S149.6,152.9,149.6,154.5z M138.2,161.6c1.9,0,3.5-0.7,4.8-2c1.3-1.4,1.9-3,1.9-5.1 c0-2-0.6-3.7-1.9-5.1c-1.3-1.4-2.9-2.1-4.8-2.1c-1.9,0-3.5,0.7-4.8,2.1c-1.3,1.4-1.9,3.1-1.9,5.1c0,2.1,0.6,3.8,1.9,5.1 S136.2,161.6,138.2,161.6z"></path> <path class="st0" d="M171.7,143.8V157c0,2.9-0.8,5.1-2.3,6.5c-1.5,1.4-3.8,2.1-6.9,2.1c-3.1,0-5.4-0.7-7-2.1 c-1.5-1.4-2.3-3.6-2.3-6.5v-13.3h4.5v12.5c0,1.8,0.4,3.1,1.2,4s1.9,1.3,3.5,1.3c1.6,0,2.7-0.4,3.5-1.3c0.8-0.9,1.2-2.2,1.2-4v-12.5 H171.7z"></path> <path class="st0" d="M176.5,165.1v-21.3h5.2c2.8,0,4.9,0.5,6.2,1.6c1.3,1.1,2,2.7,2,4.9c0,2.1-0.7,3.7-2,4.9 c-1.3,1.2-3.2,1.8-5.6,1.8H181v8.1H176.5z M181,153.4h0.7c1.2,0,2.1-0.3,2.7-0.8c0.6-0.5,0.8-1.3,0.8-2.5c0-1-0.3-1.8-0.8-2.3 c-0.6-0.5-1.5-0.7-2.7-0.7H181V153.4z"></path> </g> <g> <line class="st1" x1="44.9" y1="120.3" x2="98.9" y2="66.4"></line> <polyline class="st1" points="99.3,91.6 128,120.3 153.6,120.3 99.3,66 "></polyline> <polyline class="st1" points="99.3,66 44.9,120.3 70.6,120.3 99.3,91.6 "></polyline> </g> <polygon class="st1" points="44.9,29.8 44.9,91.9 44.9,110.1 63.1,91.9 63.1,11.6 "></polygon> <g id="Wifi_1_"> <polygon class="st2" points="105.7,59.6 116.6,70.4 116.6,59.6 116.6,48.7 "></polygon> <polygon class="st2" points="124.2,41 124.2,78.1 135.1,89 135.1,76.9 135.1,66 135.1,53.1 135.1,42.2 135.1,30.2 "></polygon> <polygon class="st2" points="142.8,22.5 142.8,96.6 153.6,107.5 153.6,100 153.6,89.1 153.6,33.4 153.6,22.5 153.6,11.6 "></polygon> </g> <rect x="0.1" y="0.1" class="st3" width="198.4" height="176.7"></rect> <g id="Line_1_" class="st4"> <line class="st5" x1="132.8" y1="104.4" x2="137.8" y2="99.4"></line> <line class="st5" x1="117.4" y1="89.1" x2="122.5" y2="84.1"></line> <line class="st5" x1="103" y1="74.6" x2="108" y2="69.6"></line> <line class="st5" x1="66.9" y1="103.3" x2="62.9" y2="99.3"></line> <line class="st5" x1="56.8" y1="72.5" x2="70.9" y2="72.5"></line> <line class="st5" x1="118" y1="89.6" x2="108" y2="99.6"></line> <line class="st5" x1="79.7" y1="90.5" x2="89.7" y2="100.5"></line> </g> </svg> 